<svg viewBox="0 0 155.059 79.2388" xmlns="http://www.w3.org/2000/svg" xmlns:xlink="http://www.w3.org/1999/xlink" id="a" overflow="hidden"><defs></defs><path d="M41.2448 0 2.15985 39.087 2.15985 50.4319 13.5068 50.4319 27.3758 36.563 32.7768 41.965 44.1239 30.618 38.7218 25.216 52.5909 11.3469 52.5909 0 41.2449 0ZM7.56085 16.749 18.9078 5.40198 13.5068 0.00098 13.5068 0 2.15985 0 2.15985 11.3469 7.56085 16.749ZM52.5909 50.4319 52.5909 39.087 41.2468 50.4319 52.5909 50.4319Z" fill="#97BE0D"/><path d="M103.021 0.00049 103.021 0.00049ZM142.106 0.00049 103.021 39.0875 103.021 50.4325 114.368 50.4325 133.911 30.8895 153.452 50.4325 153.453 50.4325 153.453 0.00049 142.106 0.00049ZM125.171 0.00049 103.022 0.00049 114.097 11.0755 125.171 0.00049Z" fill="#0086C5"/><path d="M7.94046 77.4778C3.33545 77.4778 1.01843 75.1058 1.01843 69.5908 1.01843 63.7178 4.38345 61.0978 8.49243 61.0978 10.8364 61.0978 12.6004 62.0348 13.9244 63.4138L12.6285 65.0408C11.4705 64.3788 10.2015 63.9658 8.98844 63.9658 6.50645 63.9658 4.76945 65.7858 4.76945 69.0668 4.76945 73.3698 6.39646 74.6108 8.51945 74.6108 9.45747 74.6108 10.2294 74.3618 10.6705 74.0588L10.6705 70.4458 8.43644 70.4458 8.43644 68.0748 14.2554 68.0748 14.2554 75.3548C12.6004 76.7058 10.3945 77.4778 7.94047 77.4778" fill="#97BE0D"/><path d="M19.5772 77.1743 19.5772 61.4014 29.3391 61.4014 29.3391 64.2144 23.2451 64.2144 23.2451 67.8263 28.3461 67.8263 28.3461 70.4734 23.2451 70.4734 23.2451 74.3064 29.4491 74.3064 29.4491 77.1743 19.5772 77.1743Z" fill="#97BE0D"/><path d="M40.5638 77.4774C35.8478 77.4774 33.0348 75.4374 33.0348 69.4804 33.0348 63.7174 36.3168 61.0974 40.9768 61.0974 45.7748 61.0974 48.5048 63.3034 48.5048 68.9564 48.5048 75.2444 44.8648 77.4774 40.5638 77.4774M40.6458 63.9104C38.4948 63.9104 36.9228 65.2894 36.9228 68.9844 36.9228 73.2314 38.3568 74.6374 40.8388 74.6374 43.0448 74.6374 44.6168 73.2584 44.6168 69.4534 44.6168 65.3724 43.1828 63.9104 40.6458 63.9104" fill="#97BE0D"/><path d="M63.187 77.1743 56.183 66.0614 56.183 77.1743 53.122 77.1743 53.122 61.4014 57.699 61.4014 64.069 71.1354 64.069 61.4014 67.103 61.4014 67.103 77.1743 63.187 77.1743Z" fill="#64686A"/><path d="M80.504 77.4774C75.789 77.4774 72.976 75.4374 72.976 69.4804 72.976 63.7174 76.258 61.0974 80.918 61.0974 85.716 61.0974 88.446 63.3034 88.446 68.9564 88.446 75.2444 84.806 77.4774 80.504 77.4774M80.587 63.9104C78.436 63.9104 76.865 65.2894 76.865 68.9844 76.865 73.2314 78.298 74.6374 80.78 74.6374 82.987 74.6374 84.558 73.2584 84.558 69.4534 84.558 65.3724 83.124 63.9104 80.587 63.9104" fill="#64686A"/><path d="M102.18 77.1743 97.6849 77.1743C95.3689 71.7424 93.796 66.7234 92.4739 61.4014L96.5549 61.4014C97.4369 65.4544 98.6779 69.5634 100.222 73.8924L100.25 73.8924C101.684 69.7563 102.732 65.6204 103.559 61.4014L107.199 61.4014C106.013 66.6954 104.386 72.0724 102.18 77.1743" fill="#64686A"/><path d="M119.056 77.4778C114.671 77.4778 112.327 75.6308 112.327 71.3008L112.327 61.4008 115.995 61.4008 115.995 70.8868C115.995 73.6998 117.07 74.8308 119.359 74.8308 121.455 74.8308 122.724 73.8378 122.724 71.1078L122.724 61.4008 126.336 61.4008 126.336 70.8868C126.336 75.5478 123.303 77.4778 119.056 77.4778" fill="#64686A"/><path d="M149.059 77.1743C148.976 73.0104 148.617 68.9024 148.203 65.3444L148.177 65.3444 143.984 77.1743 140.951 77.1743 136.87 65.3724 136.841 65.3724C136.456 68.9024 136.208 73.0104 136.153 77.1743L132.651 77.1743C132.817 71.9354 133.312 66.6124 134.14 61.4014L138.966 61.4014 142.771 71.9624 142.799 71.9624 146.77 61.4014 151.403 61.4014C152.12 66.6124 152.615 71.9354 152.864 77.1743L149.059 77.1743Z" fill="#64686A"/><path d="M91.6758 0 52.5909 39.087 52.5909 50.4319 74.7408 50.4319 103.022 22.15 103.022 0 91.6758 0ZM52.5909 0 52.5909 22.151 74.7398 0 52.5909 0ZM103.022 50.4319 103.022 39.087 91.6778 50.4319 103.022 50.4319Z" fill="#64686A"/></svg>